<?xml version="1.0" encoding="UTF-8"?>
<!-- Uploaded to: SVG Repo, www.svgrepo.com, Generator: SVG Repo Mixer Tools -->
<svg width="800px" height="800px" viewBox="0 0 20 20" version="1.1" xmlns="http://www.w3.org/2000/svg" xmlns:xlink="http://www.w3.org/1999/xlink">
    <title>image / 38 - image, shapes, shape icon</title>
    <g id="Free-Icons" stroke="none" stroke-width="1" fill="none" fill-rule="evenodd" stroke-linecap="round" stroke-linejoin="round">
        <g transform="translate(-525.000000, -600.000000)" id="Group" stroke="#000000" stroke-width="2">
            <g transform="translate(523.000000, 598.000000)" id="Shape">
                <path d="M11,8 L18,8 C19.6568542,8 21,9.34314575 21,11 L21,18 C21,19.6568542 19.6568542,21 18,21 L11,21 C9.34314575,21 8,19.6568542 8,18 L8,11 C8,9.34314575 9.34314575,8 11,8 Z">
</path>
                <path d="M14.8977454,7.89115917 C14.3775792,5.10718156 11.9348689,3 9,3 C5.6862915,3 3,5.6862915 3,9 C3,11.9667237 5.15317212,14.4305472 7.98204766,14.9140016">
</path>
            </g>
        </g>
    </g>
</svg>